<?xml version="1.0" encoding="utf-8"?>
<!-- Generator: Adobe Illustrator 21.0.0, SVG Export Plug-In . SVG Version: 6.00 Build 0)  -->
<svg version="1.1" id="Layer_1" xmlns="http://www.w3.org/2000/svg" xmlns:xlink="http://www.w3.org/1999/xlink" x="0px" y="0px"
	 viewBox="0 0 75 75" style="enable-background:new 0 0 75 75;" xml:space="preserve">
<style type="text/css">
	.st0{fill:#FFFFFF;}
</style>
<circle class="st0" cx="37.6" cy="37.6" r="37.5"/>
<g>
	<path d="M50.1,29.9c0,2.4-1.2,4.8-4.1,6.1c3.7,1.1,5,5,5,7c0,7-5.3,9.3-11.8,9.3c-5,0-10,0-15,0V20.8c5,0,10,0,15,0
		C45.4,20.8,50.1,23.6,50.1,29.9z M30.1,33.5h9.1c3.7,0,5-1.6,5-3.4c0-1.4-1.2-3.9-5-3.9h-9.1V33.5z M30.1,46.8h9.1
		c2.4,0,5.9-0.8,5.9-3.8c0-2.8-3.5-4.3-5.9-4.3h-9.1V46.8z"/>
</g>
</svg>
