<?xml version="1.0" encoding="utf-8"?>
<!-- Generator: Adobe Illustrator 21.0.0, SVG Export Plug-In . SVG Version: 6.00 Build 0)  -->
<svg version="1.1" id="Layer_1" xmlns="http://www.w3.org/2000/svg" xmlns:xlink="http://www.w3.org/1999/xlink" x="0px" y="0px"
	 viewBox="0 0 250 80" style="enable-background:new 0 0 250 80;" xml:space="preserve">
<style type="text/css">
	.st0{fill:#FFFFFF;}
</style>
<path class="st0" d="M238.4,80.5h-226c-6.6,0-12-5.4-12-12v-56c0-6.6,5.4-12,12-12h226c6.6,0,12,5.4,12,12v56
	C250.4,75.1,245,80.5,238.4,80.5z"/>
<g>
	<path d="M83.1,22.4v19l7.8-9.3h6.9v0.3L88.3,43L99,54.8v0.4h-6.9l-9.1-10.5v10.5h-5.7V22.4H83.1z"/>
	<path d="M113.5,25.6c0,4.5-6.8,4.5-6.8,0S113.5,21.1,113.5,25.6z M107.3,32v23.2h5.7V32H107.3z"/>
	<path d="M147.8,22.4v32.8h-5.3l-0.4-3.2c-1.8,2.8-4.6,3.7-7.5,3.7c-6.8,0-11.9-4.5-11.9-12.1c0-8,5-12.1,11.8-12.1
		c2.4,0,6.2,1.3,7.6,3.7V22.4H147.8z M128.4,43.6c0,4,2.9,6.8,6.6,6.8c3.6,0,6.7-2.6,6.7-6.8c0-4-3.1-6.8-6.7-6.8
		C131.3,36.9,128.4,39.5,128.4,43.6z"/>
	<path d="M173.5,38.2c-1.6-1.5-3.5-2.1-5.7-2.1c-2.7,0-4.2,0.8-4.2,2.3c0,1.5,1.4,2.3,4.3,2.5c4.4,0.3,9.9,1.3,9.9,7.4
		c0,4.1-3.3,7.6-9.9,7.6c-3.7,0-7.3-0.6-10.7-4.1l2.8-4.1c1.6,1.8,5.4,3.2,8,3.2c2.2,0,4.2-1.1,4.2-2.8c0-1.6-1.3-2.3-4.6-2.4
		c-4.4-0.3-9.6-1.9-9.6-7.2c0-5.3,5.5-7.2,9.8-7.2c3.6,0,6.3,0.7,9,3.1L173.5,38.2z"/>
</g>
</svg>
