<?xml version="1.0" encoding="utf-8"?>
<!-- Generator: Adobe Illustrator 21.0.0, SVG Export Plug-In . SVG Version: 6.00 Build 0)  -->
<svg version="1.1" id="Layer_1" xmlns="http://www.w3.org/2000/svg" xmlns:xlink="http://www.w3.org/1999/xlink" x="0px" y="0px"
	 viewBox="0 0 2500 776" style="enable-background:new 0 0 2500 776;" xml:space="preserve">
<style type="text/css">
	.st0{fill:#662D91;}
</style>
<path class="st0" d="M149.1,334.7c0-24.1-19.4-43.6-43.2-43.6H84.5v86.8h21.4C129.7,377.9,149.1,358.4,149.1,334.7 M246.5,507.6
	h-78.6l-62.4-86.6h-21v86.4H15.3V247.9h99.2c57.2,0,103.9,38.9,103.9,86.7c0,29.2-17.9,55.2-45.1,71.2L246.5,507.6"/>
<path class="st0" d="M324.5,350.2c-18.3,0-33.8,24.9-33.8,55.6s15.6,55.7,33.8,55.7c18.7,0,34.2-24.9,34.2-55.7
	C358.8,375.1,343.2,350.2,324.5,350.2 M431.1,405.9c0,58.8-47.8,105.8-106.6,105.8c-58.8,0-106.2-47.1-106.2-105.8
	c0-58.7,47.4-105.8,106.2-105.8C383.3,300,431.1,347.1,431.1,405.9 M593.6,304.3l-79.8,79.7v-80h-69.2v203.3h69.2v-82.5l83.3,82.5
	h87.1L578.4,401.6l87.6-87.6v120.7c0,40.1,24.1,77,84.8,77c28.8,0,55.2-16.3,68.1-31.1l31.1,26.8h14.8V304.3h-69.2v131.5
	c-7.8,13.6-18.7,22.2-35.4,22.2c-17,0-24.8-10.1-24.8-42.4V304.3H593.6L593.6,304.3z"/>
<g>
	<g>
		<path class="st0" d="M1014.6,501.2V347.5h-34.7v-14.8h34.7v-15.1c0-33.7,13.4-58.1,50.9-58.1c12.7,0,24.1,4.5,33.7,11.7l-8.3,12.4
			c-9.3-5.5-15.8-8.6-26.1-8.6c-21.3,0-33.7,13.1-33.7,42.7v15.1h56.1v14.8h-56.1v153.8H1014.6z"/>
		<path class="st0" d="M1143.6,260.5v240.8h-16.9V260.5H1143.6z"/>
		<path class="st0" d="M1354.1,331.3c0,56.8,0,113.2,0,169.9h-16.9v-36.1c-16.5,26.5-42,38.9-69.5,38.9c-47.5,0-86.3-35.8-86.3-87.7
			s38.9-87,86.3-87c27.5,0,55.4,12.7,69.5,39.2v-37.1H1354.1z M1198.3,416.3c0,42.7,31,71.2,69.5,71.2c94.6,0,94.6-142.1,0-142.1
			C1229.2,345.4,1198.3,373.6,1198.3,416.3z"/>
		<path class="st0" d="M1516.4,362.3c-17.2-15.1-34.1-17.9-53-17.9c-26.5-0.3-51.9,9.6-51.3,31.3c0.7,22.7,30.3,27.2,51.6,31
			c30.3,5.2,71.9,10.3,70.2,49.9c-1,37.5-39.9,47.5-69.8,47.5s-59.5-11.4-74.3-34.1l12.4-11c14.1,20.3,39.6,28.9,62.3,28.9
			c20.6,0,51.9-5.5,53-32.3c0.7-24.4-27.5-29.2-55.4-33.7c-33-5.5-65.7-11.7-66-45.7c-0.3-33.4,33-47.8,67.4-47.5
			c24.8,0,46.4,6.9,63.3,22.7L1516.4,362.3z"/>
		<path class="st0" d="M1587.6,260.5V363c13.8-24.4,37.5-33.7,61.2-34.1c47.5,0,71.2,30.6,71.2,75v97.3h-16.5v-97.3
			c0-35.1-16.5-58.8-54.7-58.8c-35.8,0-60.5,27.5-60.5,62.9v93.2h-16.9V260.5H1587.6z"/>
		<path class="st0" d="M1780.6,260.5v108c13.8-27.5,41.3-39.9,70.5-39.9c47.5,0,85.3,31.6,85.3,87.7c0,56.4-37.5,87.7-85,87.7
			c-28.9,0-56.8-14.4-70.9-40.2v37.5h-16.5V260.5H1780.6z M1780.9,415.9c0,42.3,29.6,71.5,69.5,71.5c38.2,0,69.5-24.1,69.5-71.2
			c0-47.8-31.3-71.5-69.5-71.5C1811.2,344.7,1780.9,373.6,1780.9,415.9z"/>
		<path class="st0" d="M2141.1,331.3c0,56.8,0,113.2,0,169.9h-16.9v-36.1c-16.5,26.5-42,38.9-69.5,38.9c-47.5,0-86.3-35.8-86.3-87.7
			s38.9-87,86.3-87c27.5,0,55.4,12.7,69.5,39.2v-37.1H2141.1z M1985.2,416.3c0,42.7,31,71.2,69.5,71.2c94.6,0,94.6-142.1,0-142.1
			C2016.2,345.4,1985.2,373.6,1985.2,416.3z"/>
		<path class="st0" d="M2329.9,477.5c-17.2,17.2-39.6,25.5-61.9,25.5c-47.8,0-87.4-33-87.4-86.7s38.2-86.7,87.4-86.7
			c22.4,0,44.7,8.6,61.9,25.5l-11,10.7c-13.8-13.8-32.7-20.3-50.9-20.3c-38.5,0-70.9,25.1-70.9,70.9s32.3,70.9,70.9,70.9
			c18.2,0,36.8-7.2,50.6-21L2329.9,477.5z"/>
		<path class="st0" d="M2380.8,260.5v145.2l80.1-74.3h22.4v0.7l-86,79.5l96,88.7v1h-21.3l-91.2-83.2v83.2h-16.5V260.5H2380.8z"/>
	</g>
</g>
</svg>
